<svg width="20" height="20" viewBox="0 0 20 20" fill="none" xmlns="http://www.w3.org/2000/svg">
<path d="M10.0042 18.125C9.18084 18.125 8.44 17.6975 8.0225 16.9808C7.84916 16.6825 7.94999 16.3 8.24833 16.1267C8.54583 15.9525 8.92917 16.0533 9.1025 16.3525C9.48417 17.0067 10.5233 17.0083 10.9058 16.3525C11.08 16.0542 11.4633 15.9542 11.7608 16.1275C12.0592 16.3008 12.16 16.6842 11.9858 16.9825C11.5675 17.6975 10.8275 18.125 10.0042 18.125ZM17.23 15.2708C17.3342 15.0542 17.305 14.7975 17.155 14.61C17.14 14.5908 15.6258 12.6717 15.6258 10.4175V8.33333C15.6258 7.98833 15.3458 7.70833 15.0008 7.70833C14.6558 7.70833 14.3758 7.98833 14.3758 8.33333V10.4167C14.3758 12.03 14.9992 13.465 15.5133 14.375H4.48916C5.00333 13.465 5.62666 12.03 5.62666 10.4167V7.5C5.62666 5.0875 7.58916 3.125 10.0017 3.125C10.3467 3.125 10.6267 2.845 10.6267 2.5C10.6267 2.155 10.3467 1.875 10.0017 1.875C6.9 1.875 4.37666 4.39833 4.37666 7.5V10.4167C4.37666 12.6575 2.86167 14.5908 2.84667 14.61C2.6975 14.7975 2.66833 15.055 2.77333 15.2708C2.8775 15.4867 3.09584 15.625 3.33584 15.625H16.6692C16.9067 15.625 17.1258 15.4875 17.23 15.2708ZM16.4583 4.16667C16.4583 2.90333 15.4308 1.875 14.1667 1.875C12.9025 1.875 11.875 2.90333 11.875 4.16667C11.875 5.43 12.9025 6.45833 14.1667 6.45833C15.4308 6.45833 16.4583 5.43 16.4583 4.16667ZM15.2083 4.16667C15.2083 4.74083 14.7408 5.20833 14.1667 5.20833C13.5925 5.20833 13.125 4.74083 13.125 4.16667C13.125 3.5925 13.5925 3.125 14.1667 3.125C14.7408 3.125 15.2083 3.5925 15.2083 4.16667Z" fill="#E9E9EA"/>
</svg>
