<svg width="20" height="20" viewBox="0 0 20 20" fill="none" xmlns="http://www.w3.org/2000/svg">
<path d="M10 12.5V13.75" stroke="#777980" stroke-width="1.25" stroke-linecap="round" stroke-linejoin="round"/>
<path d="M2.5 9.16699L2.6274 11.5531C2.76428 14.5645 2.83272 16.0702 3.79904 16.9936C4.76536 17.917 6.27263 17.917 9.28717 17.917H10.7128C13.7273 17.917 15.2347 17.917 16.201 16.9936C17.1672 16.0702 17.2357 14.5645 17.3726 11.5531L17.5 9.16699" stroke="#777980" stroke-width="1.25" stroke-linecap="round" stroke-linejoin="round"/>
<path d="M2.37135 8.70258C3.78743 11.3953 6.98137 12.5 9.9987 12.5C13.016 12.5 16.2099 11.3953 17.626 8.70258C18.302 7.41713 17.7902 5 16.1254 5H3.87203C2.20722 5 1.69539 7.41713 2.37135 8.70258Z" stroke="#777980" stroke-width="1.25"/>
<path d="M13.3347 4.99967L13.2611 4.74212C12.8944 3.45875 12.7111 2.81707 12.2746 2.45003C11.8381 2.08301 11.2583 2.08301 10.0987 2.08301H9.90382C8.74432 2.08301 8.16453 2.08301 7.72805 2.45003C7.29157 2.81707 7.10823 3.45875 6.74155 4.74212L6.66797 4.99967" stroke="#777980" stroke-width="1.25"/>
</svg>
