<svg width="141" height="140" viewBox="0 0 141 140" fill="none" xmlns="http://www.w3.org/2000/svg">
<rect x="38" y="45.2539" width="66" height="66" rx="33" fill="#7B66FF"/>
<path d="M86.3252 79.8489C85.6469 79.8489 85.0785 79.3356 85.0052 78.6572C84.5652 74.624 82.4019 70.994 79.0652 68.684C78.4602 68.2623 78.3135 67.4373 78.7352 66.8323C79.1569 66.2273 79.9819 66.0806 80.5869 66.5023C84.5652 69.2706 87.1319 73.5973 87.6635 78.3822C87.7369 79.1156 87.2052 79.7756 86.4719 79.8489C86.4169 79.8489 86.3802 79.8489 86.3252 79.8489Z" fill="white"/>
<path d="M55.8556 79.9387C55.8189 79.9387 55.7639 79.9387 55.7272 79.9387C54.9939 79.8654 54.4622 79.2054 54.5356 78.472C55.0306 73.687 57.5606 69.3603 61.5022 66.5737C62.0889 66.152 62.9322 66.2987 63.3539 66.8853C63.7756 67.4903 63.6289 68.3153 63.0422 68.737C59.7422 71.0837 57.5972 74.7137 57.1939 78.7287C57.1206 79.4254 56.5339 79.9387 55.8556 79.9387Z" fill="white"/>
<path d="M78.3164 95.1911C76.0614 96.2728 73.6414 96.8228 71.1114 96.8228C68.4714 96.8228 65.9597 96.2361 63.6131 95.0444C62.9531 94.7328 62.6964 93.9261 63.0264 93.2661C63.3381 92.6061 64.1447 92.3494 64.8047 92.6611C65.9597 93.2478 67.1881 93.6511 68.4348 93.8894C70.1214 94.2194 71.8448 94.2378 73.5314 93.9444C74.7781 93.7244 76.0064 93.3394 77.1431 92.7894C77.8214 92.4778 78.6281 92.7344 78.9214 93.4128C79.2514 94.0728 78.9948 94.8794 78.3164 95.1911Z" fill="white"/>
<path d="M71.0929 60.1953C68.2512 60.1953 65.9229 62.5053 65.9229 65.3653C65.9229 68.2253 68.2329 70.5353 71.0929 70.5353C73.9529 70.5353 76.2629 68.2253 76.2629 65.3653C76.2629 62.5053 73.9529 60.1953 71.0929 60.1953Z" fill="white"/>
<path d="M58.2594 81.9375C55.4177 81.9375 53.0894 84.2475 53.0894 87.1075C53.0894 89.9675 55.3994 92.2775 58.2594 92.2775C61.1194 92.2775 63.4294 89.9675 63.4294 87.1075C63.4294 84.2475 61.101 81.9375 58.2594 81.9375Z" fill="white"/>
<path d="M83.7432 81.9375C80.9016 81.9375 78.5732 84.2475 78.5732 87.1075C78.5732 89.9675 80.8832 92.2775 83.7432 92.2775C86.6032 92.2775 88.9132 89.9675 88.9132 87.1075C88.9132 84.2475 86.6032 81.9375 83.7432 81.9375Z" fill="white"/>
<path d="M77.5755 124.907C79.0982 124.907 80.3326 123.683 80.3326 122.172C80.3326 120.662 79.0982 119.438 77.5755 119.438C76.0528 119.438 74.8184 120.662 74.8184 122.172C74.8184 123.683 76.0528 124.907 77.5755 124.907Z" fill="#7B66FF"/>
<path d="M101.996 114.358C103.083 114.358 103.965 113.483 103.965 112.405C103.965 111.326 103.083 110.451 101.996 110.451C100.908 110.451 100.026 111.326 100.026 112.405C100.026 113.483 100.908 114.358 101.996 114.358Z" fill="#7B66FF"/>
<path d="M40.945 116.702C42.6852 116.702 44.096 115.303 44.096 113.577C44.096 111.85 42.6852 110.451 40.945 110.451C39.2047 110.451 37.7939 111.85 37.7939 113.577C37.7939 115.303 39.2047 116.702 40.945 116.702Z" fill="#7B66FF"/>
<path d="M15.54 95.997C17.1715 95.997 18.4941 94.6851 18.4941 93.0668C18.4941 91.4486 17.1715 90.1367 15.54 90.1367C13.9085 90.1367 12.5859 91.4486 12.5859 93.0668C12.5859 94.6851 13.9085 95.997 15.54 95.997Z" fill="#7B66FF"/>
<path d="M111.843 101.075C113.148 101.075 114.206 100.025 114.206 98.7308C114.206 97.4362 113.148 96.3867 111.843 96.3867C110.538 96.3867 109.479 97.4362 109.479 98.7308C109.479 100.025 110.538 101.075 111.843 101.075Z" fill="#7B66FF"/>
<path d="M129.566 96.3876C131.306 96.3876 132.717 94.9883 132.717 93.2622C132.717 91.536 131.306 90.1367 129.566 90.1367C127.826 90.1367 126.415 91.536 126.415 93.2622C126.415 94.9883 127.826 96.3876 129.566 96.3876Z" fill="#7B66FF"/>
<path d="M113.419 80.3697C114.506 80.3697 115.388 79.4951 115.388 78.4163C115.388 77.3375 114.506 76.4629 113.419 76.4629C112.331 76.4629 111.449 77.3375 111.449 78.4163C111.449 79.4951 112.331 80.3697 113.419 80.3697Z" fill="#7B66FF"/>
<path d="M111.449 71.7744C113.189 71.7744 114.6 70.375 114.6 68.6489C114.6 66.9228 113.189 65.5234 111.449 65.5234C109.709 65.5234 108.298 66.9228 108.298 68.6489C108.298 70.375 109.709 71.7744 111.449 71.7744Z" fill="#7B66FF"/>
<path d="M122.083 57.7096C123.17 57.7096 124.052 56.835 124.052 55.7561C124.052 54.6773 123.17 53.8027 122.083 53.8027C120.995 53.8027 120.113 54.6773 120.113 55.7561C120.113 56.835 120.995 57.7096 122.083 57.7096Z" fill="#7B66FF"/>
<path d="M117.751 49.1142C119.491 49.1142 120.902 47.7149 120.902 45.9887C120.902 44.2626 119.491 42.8633 117.751 42.8633C116.01 42.8633 114.6 44.2626 114.6 45.9887C114.6 47.7149 116.01 49.1142 117.751 49.1142Z" fill="#7B66FF"/>
<path d="M13.373 113.577C14.6782 113.577 15.7363 112.527 15.7363 111.233C15.7363 109.938 14.6782 108.889 13.373 108.889C12.0678 108.889 11.0098 109.938 11.0098 111.233C11.0098 112.527 12.0678 113.577 13.373 113.577Z" fill="#7B66FF"/>
<path d="M102.783 38.9559C104.306 38.9559 105.541 37.7315 105.541 36.2211C105.541 34.7107 104.306 33.4863 102.783 33.4863C101.261 33.4863 100.026 34.7107 100.026 36.2211C100.026 37.7315 101.261 38.9559 102.783 38.9559Z" fill="#7B66FF"/>
<path d="M106.131 31.9247C107.762 31.9247 109.085 30.6128 109.085 28.9946C109.085 27.3763 107.762 26.0645 106.131 26.0645C104.499 26.0645 103.177 27.3763 103.177 28.9946C103.177 30.6128 104.499 31.9247 106.131 31.9247Z" fill="#7B66FF"/>
<path d="M77.5748 20.985C78.6625 20.985 79.5442 20.1104 79.5442 19.0315C79.5442 17.9527 78.6625 17.0781 77.5748 17.0781C76.4872 17.0781 75.6055 17.9527 75.6055 19.0315C75.6055 20.1104 76.4872 20.985 77.5748 20.985Z" fill="#7B66FF"/>
<path d="M40.5504 33.0963C41.6381 33.0963 42.5198 32.2217 42.5198 31.1429C42.5198 30.064 41.6381 29.1895 40.5504 29.1895C39.4628 29.1895 38.5811 30.064 38.5811 31.1429C38.5811 32.2217 39.4628 33.0963 40.5504 33.0963Z" fill="#7B66FF"/>
<path d="M53.1546 38.9559C54.6773 38.9559 55.9117 37.7315 55.9117 36.2211C55.9117 34.7107 54.6773 33.4863 53.1546 33.4863C51.6319 33.4863 50.3975 34.7107 50.3975 36.2211C50.3975 37.7315 51.6319 38.9559 53.1546 38.9559Z" fill="#7B66FF"/>
<path d="M29.5224 38.1745C30.8276 38.1745 31.8857 37.125 31.8857 35.8304C31.8857 34.5358 30.8276 33.4863 29.5224 33.4863C28.2172 33.4863 27.1592 34.5358 27.1592 35.8304C27.1592 37.125 28.2172 38.1745 29.5224 38.1745Z" fill="#7B66FF"/>
<path d="M20.4635 23.3291C22.2038 23.3291 23.6145 21.9297 23.6145 20.2036C23.6145 18.4774 22.2038 17.0781 20.4635 17.0781C18.7233 17.0781 17.3125 18.4774 17.3125 20.2036C17.3125 21.9297 18.7233 23.3291 20.4635 23.3291Z" fill="#7B66FF"/>
<path d="M9.23825 56.536C10.8697 56.536 12.1923 55.2242 12.1923 53.6059C12.1923 51.9876 10.8697 50.6758 9.23825 50.6758C7.60676 50.6758 6.28418 51.9876 6.28418 53.6059C6.28418 55.2242 7.60676 56.536 9.23825 56.536Z" fill="#7B66FF"/>
<path d="M22.8268 66.3053C23.9145 66.3053 24.7962 65.4307 24.7962 64.3519C24.7962 63.273 23.9145 62.3984 22.8268 62.3984C21.7391 62.3984 20.8574 63.273 20.8574 64.3519C20.8574 65.4307 21.7391 66.3053 22.8268 66.3053Z" fill="#7B66FF"/>
<path d="M26.7653 85.8388C28.5055 85.8388 29.9163 84.4395 29.9163 82.7134C29.9163 80.9872 28.5055 79.5879 26.7653 79.5879C25.025 79.5879 23.6143 80.9872 23.6143 82.7134C23.6143 84.4395 25.025 85.8388 26.7653 85.8388Z" fill="#7B66FF"/>
<path d="M71.2731 29.9713C72.3607 29.9713 73.2425 29.0967 73.2425 28.0179C73.2425 26.939 72.3607 26.0645 71.2731 26.0645C70.1854 26.0645 69.3037 26.939 69.3037 28.0179C69.3037 29.0967 70.1854 29.9713 71.2731 29.9713Z" fill="#7B66FF"/>
<path d="M77.9687 38.1745C79.2739 38.1745 80.332 37.125 80.332 35.8304C80.332 34.5358 79.2739 33.4863 77.9687 33.4863C76.6635 33.4863 75.6055 34.5358 75.6055 35.8304C75.6055 37.125 76.6635 38.1745 77.9687 38.1745Z" fill="#7B66FF"/>
</svg>
