<svg width="17" height="16" viewBox="0 0 17 16" fill="none" xmlns="http://www.w3.org/2000/svg">
<path d="M8.4987 1.33301C4.82536 1.33301 1.83203 4.32634 1.83203 7.99967C1.83203 11.673 4.82536 14.6663 8.4987 14.6663C12.172 14.6663 15.1654 11.673 15.1654 7.99967C15.1654 4.32634 12.172 1.33301 8.4987 1.33301ZM10.7387 9.53301C10.932 9.72634 10.932 10.0463 10.7387 10.2397C10.6387 10.3397 10.512 10.3863 10.3854 10.3863C10.2587 10.3863 10.132 10.3397 10.032 10.2397L8.4987 8.70634L6.96536 10.2397C6.86536 10.3397 6.7387 10.3863 6.61203 10.3863C6.48536 10.3863 6.3587 10.3397 6.2587 10.2397C6.06536 10.0463 6.06536 9.72634 6.2587 9.53301L7.79203 7.99967L6.2587 6.46634C6.06536 6.27301 6.06536 5.95301 6.2587 5.75968C6.45203 5.56634 6.77203 5.56634 6.96536 5.75968L8.4987 7.29301L10.032 5.75968C10.2254 5.56634 10.5454 5.56634 10.7387 5.75968C10.932 5.95301 10.932 6.27301 10.7387 6.46634L9.20537 7.99967L10.7387 9.53301Z" fill="#CB121D"/>
</svg>
