<svg width="20" height="20" viewBox="0 0 20 20" fill="none" xmlns="http://www.w3.org/2000/svg">
<path fill-rule="evenodd" clip-rule="evenodd" d="M18.7251 3.82205C18.9946 3.60642 19.0383 3.21311 18.8227 2.94357C18.6071 2.67403 18.2138 2.63033 17.9442 2.84596L15.1731 5.06285C13.7754 3.80761 11.9927 2.70901 10.0013 2.70901C8.21719 2.70901 6.60403 3.5915 5.29443 4.66377C3.97768 5.74189 2.901 7.06622 2.1775 8.07402L2.11783 8.157C1.68229 8.76219 1.32376 9.26037 1.32376 10.0006C1.32375 10.7409 1.68221 11.239 2.11767 11.8441L2.17731 11.9271C2.63256 12.5612 3.22554 13.3177 3.92818 14.0588L1.27756 16.1793C1.00802 16.3949 0.964318 16.7882 1.17995 17.0578C1.39558 17.3273 1.78889 17.371 2.05843 17.1554L18.7251 3.82205ZM10.0013 3.95901C11.4828 3.95901 12.9199 4.75842 14.1824 5.85543L12.0018 7.59989C11.4602 7.14821 10.7624 6.87567 10.0013 6.87567C8.27543 6.87567 6.87632 8.27479 6.87632 10.0007C6.87632 10.5135 7.00023 10.9982 7.21957 11.4257L4.90799 13.2749C4.22382 12.5628 3.64132 11.823 3.19275 11.1981C2.67293 10.474 2.57375 10.2994 2.57375 10.0007C2.57376 9.70189 2.67297 9.52728 3.19293 8.80299C3.88399 7.84039 4.88756 6.61246 6.08632 5.63093C7.29224 4.64356 8.62985 3.95901 10.0013 3.95901ZM10.0013 8.12567C10.3648 8.12567 10.7041 8.22885 10.9916 8.40807L8.22993 10.6174C8.16278 10.4244 8.12632 10.217 8.12632 10.0007C8.12632 8.96514 8.96579 8.12567 10.0013 8.12567Z" fill="#A5A5AB"/>
<path d="M16.9974 6.99298C16.779 6.7257 16.3853 6.68611 16.118 6.90454C15.8507 7.12297 15.8111 7.51672 16.0296 7.78399C16.3216 8.14138 16.5831 8.48728 16.8097 8.80293C17.3297 9.52727 17.4289 9.7019 17.4289 10.0007C17.4289 10.2994 17.3297 10.4741 16.8097 11.1984C16.1187 12.161 15.1151 13.3889 13.9163 14.3704C12.7104 15.3578 11.3728 16.0423 10.0013 16.0423C8.83065 16.0423 7.68315 15.544 6.61593 14.7775C6.33558 14.5761 5.94507 14.6402 5.7437 14.9205C5.54233 15.2009 5.60636 15.5914 5.88671 15.7927C7.07383 16.6454 8.47431 17.2923 10.0013 17.2923C11.7855 17.2923 13.3986 16.4098 14.7082 15.3376C16.025 14.2595 17.1016 12.9351 17.8251 11.9273L17.8848 11.8444C18.3204 11.2391 18.6789 10.741 18.6789 10.0007C18.6789 9.26038 18.3203 8.76217 17.8848 8.15694L17.8251 8.07395C17.5854 7.74002 17.3081 7.37312 16.9974 6.99298Z" fill="#A5A5AB"/>
<path d="M13.1263 10.0007C13.1263 9.6555 12.8465 9.37567 12.5013 9.37567C12.1561 9.37567 11.8763 9.6555 11.8763 10.0007C11.8763 11.0362 11.0369 11.8757 10.0013 11.8757C9.65615 11.8757 9.37632 12.1555 9.37632 12.5007C9.37632 12.8459 9.65615 13.1257 10.0013 13.1257C11.7272 13.1257 13.1263 11.7266 13.1263 10.0007Z" fill="#A5A5AB"/>
</svg>
