<svg width="20" height="20" viewBox="0 0 20 20" fill="none" xmlns="http://www.w3.org/2000/svg">
<path d="M5.83203 8.33301V14.1663" stroke="#00A1F1" stroke-width="1.25" stroke-linecap="round" stroke-linejoin="round"/>
<path d="M9.16797 10.833V14.1663M9.16797 10.833C9.16797 9.45226 10.2872 8.33301 11.668 8.33301C13.0487 8.33301 14.168 9.45226 14.168 10.833V14.1663M9.16797 10.833V8.33301" stroke="#00A1F1" stroke-width="1.25" stroke-linecap="round" stroke-linejoin="round"/>
<path d="M5.83952 5.83301H5.83203" stroke="#00A1F1" stroke-width="1.66667" stroke-linecap="round" stroke-linejoin="round"/>
<path d="M2.08203 9.99967C2.08203 6.26772 2.08203 4.40175 3.2414 3.24237C4.40077 2.08301 6.26675 2.08301 9.9987 2.08301C13.7306 2.08301 15.5966 2.08301 16.756 3.24237C17.9154 4.40175 17.9154 6.26772 17.9154 9.99967C17.9154 13.7316 17.9154 15.5976 16.756 16.757C15.5966 17.9163 13.7306 17.9163 9.9987 17.9163C6.26675 17.9163 4.40077 17.9163 3.2414 16.757C2.08203 15.5976 2.08203 13.7316 2.08203 9.99967Z" stroke="#00A1F1" stroke-width="1.25" stroke-linejoin="round"/>
</svg>
