<svg width="20" height="20" viewBox="0 0 20 20" fill="none" xmlns="http://www.w3.org/2000/svg">
<path d="M1.66797 5L7.42882 8.26414C9.55264 9.4675 10.45 9.4675 12.5738 8.26414L18.3346 5" stroke="#777980" stroke-width="1.25" stroke-linejoin="round"/>
<path d="M1.68111 11.23C1.73559 13.7847 1.76283 15.0619 2.70544 16.0082C3.64804 16.9543 4.95991 16.9872 7.58366 17.0532C9.20072 17.0938 10.8019 17.0938 12.419 17.0532C15.0427 16.9872 16.3546 16.9543 17.2972 16.0082C18.2398 15.0619 18.2671 13.7847 18.3215 11.23C18.3391 10.4086 18.3391 9.59208 18.3215 8.77066C18.2671 6.21604 18.2398 4.93873 17.2972 3.99254C16.3546 3.04635 15.0427 3.01339 12.419 2.94747C10.8019 2.90683 9.20072 2.90683 7.58365 2.94746C4.95991 3.01338 3.64804 3.04633 2.70543 3.99253C1.76282 4.93873 1.73559 6.21603 1.6811 8.77066C1.66359 9.59208 1.66359 10.4086 1.68111 11.23Z" stroke="#777980" stroke-width="1.25" stroke-linejoin="round"/>
</svg>
