<svg width="20" height="20" viewBox="0 0 20 20" fill="none" xmlns="http://www.w3.org/2000/svg">
<path d="M15.6108 6.05521C15.5383 4.43687 14.5942 3.54102 12.9167 3.54102H4.58333C2.83667 3.54102 1.875 4.50268 1.875 6.24935V12.0827C1.875 13.7602 2.77086 14.7043 4.38919 14.7768C4.46169 16.3952 5.40583 17.291 7.08333 17.291H15.4167C17.1633 17.291 18.125 16.3293 18.125 14.5827V8.74935C18.125 7.07185 17.2291 6.12771 15.6108 6.05521ZM3.125 12.0827V6.24935C3.125 5.20018 3.53417 4.79102 4.58333 4.79102H12.9167C13.9658 4.79102 14.375 5.20018 14.375 6.24935V12.0827C14.375 13.1318 13.9658 13.541 12.9167 13.541H4.58333C3.53417 13.541 3.125 13.1318 3.125 12.0827ZM16.875 14.5827C16.875 15.6318 16.4667 16.041 15.4167 16.041H7.08333C6.10917 16.041 5.69167 15.681 5.63583 14.791H12.9167C14.6633 14.791 15.625 13.8293 15.625 12.0827V7.30185C16.5158 7.35768 16.875 7.77435 16.875 8.74935V14.5827ZM4.58333 9.99935C4.12333 9.99935 3.75 9.62602 3.75 9.16602C3.75 8.70602 4.12333 8.33268 4.58333 8.33268C5.04333 8.33268 5.41667 8.70602 5.41667 9.16602C5.41667 9.62602 5.04333 9.99935 4.58333 9.99935ZM12.0833 9.16602C12.0833 8.70602 12.4567 8.33268 12.9167 8.33268C13.3767 8.33268 13.75 8.70602 13.75 9.16602C13.75 9.62602 13.3767 9.99935 12.9167 9.99935C12.4567 9.99935 12.0833 9.62602 12.0833 9.16602ZM8.75 11.8743C10.2433 11.8743 11.4583 10.6593 11.4583 9.16602C11.4583 7.67268 10.2433 6.45768 8.75 6.45768C7.25667 6.45768 6.04167 7.67268 6.04167 9.16602C6.04167 10.6593 7.25667 11.8743 8.75 11.8743ZM8.75 7.70768C9.55417 7.70768 10.2083 8.36185 10.2083 9.16602C10.2083 9.97018 9.55417 10.6243 8.75 10.6243C7.94583 10.6243 7.29167 9.97018 7.29167 9.16602C7.29167 8.36185 7.94583 7.70768 8.75 7.70768Z" fill="#E9E9EA"/>
</svg>
