<svg width="141" height="140" viewBox="0 0 141 140" fill="none" xmlns="http://www.w3.org/2000/svg">
<path d="M70.9998 86.9199C71.9443 86.9199 72.7365 86.5999 73.3765 85.9599C74.0165 85.3199 74.3354 84.5288 74.3332 83.5866C74.331 82.6444 74.011 81.8533 73.3732 81.2133C72.7354 80.5733 71.9443 80.2533 70.9998 80.2533C70.0554 80.2533 69.2643 80.5733 68.6265 81.2133C67.9887 81.8533 67.6687 82.6444 67.6665 83.5866C67.6643 84.5288 67.9843 85.321 68.6265 85.9633C69.2687 86.6055 70.0598 86.9244 70.9998 86.9199ZM67.6665 73.5866H74.3332V53.5866H67.6665V73.5866ZM70.9998 103.587C66.3887 103.587 62.0554 102.711 57.9998 100.96C53.9443 99.2088 50.4165 96.8344 47.4165 93.8366C44.4165 90.8388 42.0421 87.311 40.2932 83.2533C38.5443 79.1955 37.6687 74.8621 37.6665 70.2533C37.6643 65.6444 38.5398 61.311 40.2932 57.2533C42.0465 53.1955 44.421 49.6677 47.4165 46.6699C50.4121 43.6721 53.9398 41.2977 57.9998 39.5466C62.0598 37.7955 66.3932 36.9199 70.9998 36.9199C75.6065 36.9199 79.9398 37.7955 83.9998 39.5466C88.0598 41.2977 91.5876 43.6721 94.5832 46.6699C97.5787 49.6677 99.9543 53.1955 101.71 57.2533C103.465 61.311 104.34 65.6444 104.333 70.2533C104.327 74.8621 103.451 79.1955 101.707 83.2533C99.9621 87.311 97.5876 90.8388 94.5832 93.8366C91.5787 96.8344 88.051 99.2099 83.9998 100.963C79.9487 102.717 75.6154 103.591 70.9998 103.587Z" fill="#EB3D4D"/>
<path d="M77.5755 124.907C79.0982 124.907 80.3326 123.683 80.3326 122.172C80.3326 120.662 79.0982 119.438 77.5755 119.438C76.0528 119.438 74.8184 120.662 74.8184 122.172C74.8184 123.683 76.0528 124.907 77.5755 124.907Z" fill="#F38B94"/>
<path d="M101.996 114.358C103.083 114.358 103.965 113.483 103.965 112.405C103.965 111.326 103.083 110.451 101.996 110.451C100.908 110.451 100.026 111.326 100.026 112.405C100.026 113.483 100.908 114.358 101.996 114.358Z" fill="#F38B94"/>
<path d="M40.945 116.702C42.6852 116.702 44.096 115.303 44.096 113.577C44.096 111.85 42.6852 110.451 40.945 110.451C39.2047 110.451 37.7939 111.85 37.7939 113.577C37.7939 115.303 39.2047 116.702 40.945 116.702Z" fill="#F38B94"/>
<path d="M15.54 95.997C17.1715 95.997 18.4941 94.6851 18.4941 93.0668C18.4941 91.4486 17.1715 90.1367 15.54 90.1367C13.9085 90.1367 12.5859 91.4486 12.5859 93.0668C12.5859 94.6851 13.9085 95.997 15.54 95.997Z" fill="#F38B94"/>
<path d="M111.843 101.075C113.148 101.075 114.206 100.025 114.206 98.7308C114.206 97.4362 113.148 96.3867 111.843 96.3867C110.538 96.3867 109.479 97.4362 109.479 98.7308C109.479 100.025 110.538 101.075 111.843 101.075Z" fill="#F38B94"/>
<path d="M129.566 96.3876C131.306 96.3876 132.717 94.9883 132.717 93.2622C132.717 91.536 131.306 90.1367 129.566 90.1367C127.826 90.1367 126.415 91.536 126.415 93.2622C126.415 94.9883 127.826 96.3876 129.566 96.3876Z" fill="#F38B94"/>
<path d="M113.419 80.3697C114.506 80.3697 115.388 79.4951 115.388 78.4163C115.388 77.3375 114.506 76.4629 113.419 76.4629C112.331 76.4629 111.449 77.3375 111.449 78.4163C111.449 79.4951 112.331 80.3697 113.419 80.3697Z" fill="#F38B94"/>
<path d="M111.449 71.7744C113.189 71.7744 114.6 70.375 114.6 68.6489C114.6 66.9228 113.189 65.5234 111.449 65.5234C109.709 65.5234 108.298 66.9228 108.298 68.6489C108.298 70.375 109.709 71.7744 111.449 71.7744Z" fill="#F38B94"/>
<path d="M122.083 57.7096C123.17 57.7096 124.052 56.835 124.052 55.7561C124.052 54.6773 123.17 53.8027 122.083 53.8027C120.995 53.8027 120.113 54.6773 120.113 55.7561C120.113 56.835 120.995 57.7096 122.083 57.7096Z" fill="#F38B94"/>
<path d="M117.751 49.1142C119.491 49.1142 120.902 47.7149 120.902 45.9887C120.902 44.2626 119.491 42.8633 117.751 42.8633C116.01 42.8633 114.6 44.2626 114.6 45.9887C114.6 47.7149 116.01 49.1142 117.751 49.1142Z" fill="#F38B94"/>
<path d="M13.373 113.577C14.6782 113.577 15.7363 112.527 15.7363 111.233C15.7363 109.938 14.6782 108.889 13.373 108.889C12.0678 108.889 11.0098 109.938 11.0098 111.233C11.0098 112.527 12.0678 113.577 13.373 113.577Z" fill="#F38B94"/>
<path d="M102.783 38.9559C104.306 38.9559 105.541 37.7315 105.541 36.2211C105.541 34.7107 104.306 33.4863 102.783 33.4863C101.261 33.4863 100.026 34.7107 100.026 36.2211C100.026 37.7315 101.261 38.9559 102.783 38.9559Z" fill="#F38B94"/>
<path d="M106.131 31.9247C107.762 31.9247 109.085 30.6128 109.085 28.9946C109.085 27.3763 107.762 26.0645 106.131 26.0645C104.499 26.0645 103.177 27.3763 103.177 28.9946C103.177 30.6128 104.499 31.9247 106.131 31.9247Z" fill="#F38B94"/>
<path d="M77.5748 20.985C78.6625 20.985 79.5442 20.1104 79.5442 19.0315C79.5442 17.9527 78.6625 17.0781 77.5748 17.0781C76.4872 17.0781 75.6055 17.9527 75.6055 19.0315C75.6055 20.1104 76.4872 20.985 77.5748 20.985Z" fill="#F38B94"/>
<path d="M40.5504 33.0963C41.6381 33.0963 42.5198 32.2217 42.5198 31.1429C42.5198 30.064 41.6381 29.1895 40.5504 29.1895C39.4628 29.1895 38.5811 30.064 38.5811 31.1429C38.5811 32.2217 39.4628 33.0963 40.5504 33.0963Z" fill="#F38B94"/>
<path d="M53.1546 38.9559C54.6773 38.9559 55.9117 37.7315 55.9117 36.2211C55.9117 34.7107 54.6773 33.4863 53.1546 33.4863C51.6319 33.4863 50.3975 34.7107 50.3975 36.2211C50.3975 37.7315 51.6319 38.9559 53.1546 38.9559Z" fill="#F38B94"/>
<path d="M29.5224 38.1745C30.8276 38.1745 31.8857 37.125 31.8857 35.8304C31.8857 34.5358 30.8276 33.4863 29.5224 33.4863C28.2172 33.4863 27.1592 34.5358 27.1592 35.8304C27.1592 37.125 28.2172 38.1745 29.5224 38.1745Z" fill="#F38B94"/>
<path d="M20.4635 23.3291C22.2038 23.3291 23.6145 21.9297 23.6145 20.2036C23.6145 18.4774 22.2038 17.0781 20.4635 17.0781C18.7233 17.0781 17.3125 18.4774 17.3125 20.2036C17.3125 21.9297 18.7233 23.3291 20.4635 23.3291Z" fill="#F38B94"/>
<path d="M9.23825 56.536C10.8697 56.536 12.1923 55.2242 12.1923 53.6059C12.1923 51.9876 10.8697 50.6758 9.23825 50.6758C7.60676 50.6758 6.28418 51.9876 6.28418 53.6059C6.28418 55.2242 7.60676 56.536 9.23825 56.536Z" fill="#F38B94"/>
<path d="M22.8268 66.3053C23.9145 66.3053 24.7962 65.4307 24.7962 64.3519C24.7962 63.273 23.9145 62.3984 22.8268 62.3984C21.7391 62.3984 20.8574 63.273 20.8574 64.3519C20.8574 65.4307 21.7391 66.3053 22.8268 66.3053Z" fill="#F38B94"/>
<path d="M26.7653 85.8388C28.5055 85.8388 29.9163 84.4395 29.9163 82.7134C29.9163 80.9872 28.5055 79.5879 26.7653 79.5879C25.025 79.5879 23.6143 80.9872 23.6143 82.7134C23.6143 84.4395 25.025 85.8388 26.7653 85.8388Z" fill="#F38B94"/>
<path d="M71.2731 29.9713C72.3607 29.9713 73.2425 29.0967 73.2425 28.0179C73.2425 26.939 72.3607 26.0645 71.2731 26.0645C70.1854 26.0645 69.3037 26.939 69.3037 28.0179C69.3037 29.0967 70.1854 29.9713 71.2731 29.9713Z" fill="#F38B94"/>
<path d="M77.9687 38.1745C79.2739 38.1745 80.332 37.125 80.332 35.8304C80.332 34.5358 79.2739 33.4863 77.9687 33.4863C76.6635 33.4863 75.6055 34.5358 75.6055 35.8304C75.6055 37.125 76.6635 38.1745 77.9687 38.1745Z" fill="#F38B94"/>
</svg>
