<svg width="141" height="140" viewBox="0 0 141 140" fill="none" xmlns="http://www.w3.org/2000/svg">
<g clip-path="url(#clip0_3612_27106)">
<rect width="80" height="80" transform="translate(29.3496 36.3833)" fill="white"/>
<path fill-rule="evenodd" clip-rule="evenodd" d="M69.3496 116.383C61.4384 116.383 53.7048 114.037 47.1268 109.642C40.5489 105.247 35.422 98.9997 32.3945 91.6906C29.367 84.3816 28.5748 76.3389 30.1182 68.5797C31.6616 60.8204 35.4713 53.6932 41.0654 48.0991C46.6595 42.505 53.7868 38.6953 61.546 37.1519C69.3053 35.6085 77.348 36.4006 84.657 39.4281C91.9661 42.4556 98.2132 47.5825 102.608 54.1605C107.004 60.7385 109.35 68.4721 109.35 76.3833C109.35 86.992 105.135 97.1661 97.6339 104.668C90.1325 112.169 79.9583 116.383 69.3496 116.383ZM46.7016 85.4033C45.8415 84.5337 45.359 83.3598 45.359 82.1367C45.359 80.9135 45.8415 79.7396 46.7016 78.87L49.0564 76.5287C49.4568 76.1246 49.9343 75.8051 50.4606 75.5891C50.9869 75.3732 51.5512 75.2652 52.1201 75.2715C52.6889 75.2778 53.2507 75.3984 53.772 75.626C54.2934 75.8537 54.7637 76.1838 55.155 76.5967L59.315 80.9126C59.5133 81.1219 59.7522 81.2886 60.0171 81.4025C60.282 81.5164 60.5673 81.5752 60.8557 81.5752C61.144 81.5752 61.4293 81.5164 61.6942 81.4025C61.9591 81.2886 62.1979 81.1219 62.3963 80.9126L83.5963 59.0593C83.9905 58.6435 84.4647 58.3117 84.9903 58.0838C85.516 57.856 86.0824 57.7368 86.6553 57.7335C87.2282 57.7301 87.7959 57.8426 88.3242 58.0643C88.8526 58.2859 89.3306 58.6122 89.7296 59.0233L92.0163 61.3353C92.8555 62.2014 93.3247 63.36 93.3247 64.566C93.3247 65.7719 92.8555 66.9306 92.0163 67.7966L63.871 96.398C63.4782 96.8045 63.0082 97.1286 62.4886 97.3512C61.9689 97.5737 61.41 97.6903 60.8447 97.694C60.2794 97.6977 59.719 97.5885 59.1965 97.3729C58.6739 97.1572 58.1997 96.8393 57.8016 96.438L46.7016 85.4033Z" fill="#22CAAD"/>
<path d="M101.133 46.7617C103.044 46.7617 104.593 45.2128 104.593 43.3022C104.593 41.3916 103.044 39.8428 101.133 39.8428C99.2227 39.8428 97.6738 41.3916 97.6738 43.3022C97.6738 45.2128 99.2227 46.7617 101.133 46.7617Z" fill="#22CAAD"/>
</g>
<path d="M77.5755 124.906C79.0982 124.906 80.3326 123.682 80.3326 122.171C80.3326 120.661 79.0982 119.437 77.5755 119.437C76.0528 119.437 74.8184 120.661 74.8184 122.171C74.8184 123.682 76.0528 124.906 77.5755 124.906Z" fill="#22CAAD"/>
<path d="M101.996 114.358C103.083 114.358 103.965 113.483 103.965 112.404C103.965 111.325 103.083 110.451 101.996 110.451C100.908 110.451 100.026 111.325 100.026 112.404C100.026 113.483 100.908 114.358 101.996 114.358Z" fill="#22CAAD"/>
<path d="M40.945 116.702C42.6852 116.702 44.096 115.303 44.096 113.577C44.096 111.85 42.6852 110.451 40.945 110.451C39.2047 110.451 37.7939 111.85 37.7939 113.577C37.7939 115.303 39.2047 116.702 40.945 116.702Z" fill="#22CAAD"/>
<path d="M15.54 95.996C17.1715 95.996 18.4941 94.6841 18.4941 93.0659C18.4941 91.4476 17.1715 90.1357 15.54 90.1357C13.9085 90.1357 12.5859 91.4476 12.5859 93.0659C12.5859 94.6841 13.9085 95.996 15.54 95.996Z" fill="#22CAAD"/>
<path d="M111.843 101.074C113.148 101.074 114.206 100.025 114.206 98.7303C114.206 97.4357 113.148 96.3862 111.843 96.3862C110.538 96.3862 109.479 97.4357 109.479 98.7303C109.479 100.025 110.538 101.074 111.843 101.074Z" fill="#22CAAD"/>
<path d="M129.566 96.3867C131.306 96.3867 132.717 94.9874 132.717 93.2612C132.717 91.5351 131.306 90.1357 129.566 90.1357C127.826 90.1357 126.415 91.5351 126.415 93.2612C126.415 94.9874 127.826 96.3867 129.566 96.3867Z" fill="#22CAAD"/>
<path d="M113.419 80.3687C114.506 80.3687 115.388 79.4942 115.388 78.4153C115.388 77.3365 114.506 76.4619 113.419 76.4619C112.331 76.4619 111.449 77.3365 111.449 78.4153C111.449 79.4942 112.331 80.3687 113.419 80.3687Z" fill="#22CAAD"/>
<path d="M111.449 71.7734C113.189 71.7734 114.6 70.3741 114.6 68.6479C114.6 66.9218 113.189 65.5225 111.449 65.5225C109.709 65.5225 108.298 66.9218 108.298 68.6479C108.298 70.3741 109.709 71.7734 111.449 71.7734Z" fill="#22CAAD"/>
<path d="M122.083 57.7086C123.17 57.7086 124.052 56.834 124.052 55.7552C124.052 54.6763 123.17 53.8018 122.083 53.8018C120.995 53.8018 120.113 54.6763 120.113 55.7552C120.113 56.834 120.995 57.7086 122.083 57.7086Z" fill="#22CAAD"/>
<path d="M117.751 49.1132C119.491 49.1132 120.902 47.7139 120.902 45.9878C120.902 44.2616 119.491 42.8623 117.751 42.8623C116.01 42.8623 114.6 44.2616 114.6 45.9878C114.6 47.7139 116.01 49.1132 117.751 49.1132Z" fill="#22CAAD"/>
<path d="M13.373 113.576C14.6782 113.576 15.7363 112.527 15.7363 111.232C15.7363 109.938 14.6782 108.888 13.373 108.888C12.0678 108.888 11.0098 109.938 11.0098 111.232C11.0098 112.527 12.0678 113.576 13.373 113.576Z" fill="#22CAAD"/>
<path d="M102.783 38.9559C104.306 38.9559 105.541 37.7315 105.541 36.2211C105.541 34.7107 104.306 33.4863 102.783 33.4863C101.261 33.4863 100.026 34.7107 100.026 36.2211C100.026 37.7315 101.261 38.9559 102.783 38.9559Z" fill="#22CAAD"/>
<path d="M106.131 31.9237C107.762 31.9237 109.085 30.6119 109.085 28.9936C109.085 27.3753 107.762 26.0635 106.131 26.0635C104.499 26.0635 103.177 27.3753 103.177 28.9936C103.177 30.6119 104.499 31.9237 106.131 31.9237Z" fill="#22CAAD"/>
<path d="M77.5748 20.9845C78.6625 20.9845 79.5442 20.1099 79.5442 19.0311C79.5442 17.9522 78.6625 17.0776 77.5748 17.0776C76.4872 17.0776 75.6055 17.9522 75.6055 19.0311C75.6055 20.1099 76.4872 20.9845 77.5748 20.9845Z" fill="#22CAAD"/>
<path d="M40.5504 33.0958C41.6381 33.0958 42.5198 32.2212 42.5198 31.1424C42.5198 30.0635 41.6381 29.189 40.5504 29.189C39.4628 29.189 38.5811 30.0635 38.5811 31.1424C38.5811 32.2212 39.4628 33.0958 40.5504 33.0958Z" fill="#22CAAD"/>
<path d="M53.1546 38.9559C54.6773 38.9559 55.9117 37.7315 55.9117 36.2211C55.9117 34.7107 54.6773 33.4863 53.1546 33.4863C51.6319 33.4863 50.3975 34.7107 50.3975 36.2211C50.3975 37.7315 51.6319 38.9559 53.1546 38.9559Z" fill="#22CAAD"/>
<path d="M29.5224 38.1745C30.8276 38.1745 31.8857 37.125 31.8857 35.8304C31.8857 34.5358 30.8276 33.4863 29.5224 33.4863C28.2172 33.4863 27.1592 34.5358 27.1592 35.8304C27.1592 37.125 28.2172 38.1745 29.5224 38.1745Z" fill="#22CAAD"/>
<path d="M20.4635 23.3286C22.2038 23.3286 23.6145 21.9292 23.6145 20.2031C23.6145 18.477 22.2038 17.0776 20.4635 17.0776C18.7233 17.0776 17.3125 18.477 17.3125 20.2031C17.3125 21.9292 18.7233 23.3286 20.4635 23.3286Z" fill="#22CAAD"/>
<path d="M9.23825 56.5365C10.8697 56.5365 12.1923 55.2247 12.1923 53.6064C12.1923 51.9881 10.8697 50.6763 9.23825 50.6763C7.60676 50.6763 6.28418 51.9881 6.28418 53.6064C6.28418 55.2247 7.60676 56.5365 9.23825 56.5365Z" fill="#22CAAD"/>
<path d="M22.8268 66.3038C23.9145 66.3038 24.7962 65.4292 24.7962 64.3504C24.7962 63.2715 23.9145 62.397 22.8268 62.397C21.7391 62.397 20.8574 63.2715 20.8574 64.3504C20.8574 65.4292 21.7391 66.3038 22.8268 66.3038Z" fill="#22CAAD"/>
<path d="M26.7653 85.8378C28.5055 85.8378 29.9163 84.4385 29.9163 82.7124C29.9163 80.9862 28.5055 79.5869 26.7653 79.5869C25.025 79.5869 23.6143 80.9862 23.6143 82.7124C23.6143 84.4385 25.025 85.8378 26.7653 85.8378Z" fill="#22CAAD"/>
<path d="M71.2731 29.9703C72.3607 29.9703 73.2425 29.0957 73.2425 28.0169C73.2425 26.9381 72.3607 26.0635 71.2731 26.0635C70.1854 26.0635 69.3037 26.9381 69.3037 28.0169C69.3037 29.0957 70.1854 29.9703 71.2731 29.9703Z" fill="#22CAAD"/>
<path d="M77.9687 38.1745C79.2739 38.1745 80.332 37.125 80.332 35.8304C80.332 34.5358 79.2739 33.4863 77.9687 33.4863C76.6635 33.4863 75.6055 34.5358 75.6055 35.8304C75.6055 37.125 76.6635 38.1745 77.9687 38.1745Z" fill="#22CAAD"/>
<defs>
<clipPath id="clip0_3612_27106">
<rect width="80" height="80" fill="white" transform="translate(29.3496 36.3833)"/>
</clipPath>
</defs>
</svg>
