<svg width="20" height="20" viewBox="0 0 20 20" fill="none" xmlns="http://www.w3.org/2000/svg">
<path d="M10 18.1242C9.52 18.1242 9.04005 17.9417 8.67421 17.5758L6.99086 15.8933C6.7717 15.675 6.41996 15.6508 6.1733 15.8358L5.04171 16.685C4.59587 17.0183 4.01085 17.0708 3.51501 16.8225C3.01751 16.5742 2.70833 16.0742 2.70833 15.5183V5C2.70833 2.985 3.81833 1.875 5.83333 1.875H14.1667C16.1817 1.875 17.2917 2.985 17.2917 5V15.5175C17.2917 16.0733 16.9825 16.5733 16.485 16.8217C15.9892 17.07 15.4033 17.0175 14.9583 16.6842L13.8258 15.8342C13.58 15.6492 13.2275 15.6733 13.0091 15.8925L11.3258 17.575C10.96 17.9417 10.48 18.1242 10 18.1242ZM6.54663 14.4633C7.0308 14.4633 7.51329 14.6483 7.87496 15.0092L9.55831 16.6925C9.79414 16.9283 10.2058 16.9283 10.4425 16.6925L12.1259 15.01C12.7817 14.3542 13.8366 14.2808 14.5758 14.8358L15.7091 15.6858C15.7991 15.7542 15.8842 15.7267 15.9275 15.7058C15.97 15.6842 16.0425 15.6317 16.0425 15.5192V5C16.0425 3.68583 15.4816 3.125 14.1675 3.125H5.83415C4.51998 3.125 3.95915 3.68583 3.95915 5V15.5175C3.95915 15.63 4.0317 15.6825 4.0742 15.7042C4.11836 15.7258 4.2025 15.7525 4.2925 15.6842L5.42501 14.8342C5.75667 14.5858 6.15246 14.4633 6.54663 14.4633ZM13.9583 7.5C13.9583 7.155 13.6783 6.875 13.3333 6.875H6.66667C6.32167 6.875 6.04167 7.155 6.04167 7.5C6.04167 7.845 6.32167 8.125 6.66667 8.125H13.3333C13.6783 8.125 13.9583 7.845 13.9583 7.5ZM11.4583 10.8333C11.4583 10.4883 11.1783 10.2083 10.8333 10.2083H6.66667C6.32167 10.2083 6.04167 10.4883 6.04167 10.8333C6.04167 11.1783 6.32167 11.4583 6.66667 11.4583H10.8333C11.1783 11.4583 11.4583 11.1783 11.4583 10.8333Z" fill="white"/>
</svg>
