<svg width="20" height="20" viewBox="0 0 20 20" fill="none" xmlns="http://www.w3.org/2000/svg">
<path d="M17.3117 15C17.9361 15 18.4327 14.6071 18.8787 14.0576C19.7916 12.9328 18.2927 12.034 17.7211 11.5938C17.14 11.1463 16.4912 10.8928 15.8333 10.8333M15 9.16667C16.1506 9.16667 17.0833 8.23392 17.0833 7.08333C17.0833 5.93274 16.1506 5 15 5" stroke="#777980" stroke-width="1.25" stroke-linecap="round"/>
<path d="M2.687 15C2.06258 15 1.56593 14.6071 1.11998 14.0576C0.207107 12.9328 1.70593 12.034 2.27757 11.5938C2.85868 11.1463 3.50752 10.8928 4.16537 10.8333M4.58203 9.16667C3.43144 9.16667 2.4987 8.23392 2.4987 7.08333C2.4987 5.93274 3.43144 5 4.58203 5" stroke="#777980" stroke-width="1.25" stroke-linecap="round"/>
<path d="M6.7352 12.593C5.88372 13.1195 3.65118 14.1946 5.01095 15.5398C5.67518 16.197 6.41497 16.667 7.34505 16.667H12.6524C13.5825 16.667 14.3222 16.197 14.9865 15.5398C16.3462 14.1946 14.1137 13.1195 13.2622 12.593C11.2655 11.3583 8.73188 11.3583 6.7352 12.593Z" stroke="#777980" stroke-width="1.25" stroke-linecap="round" stroke-linejoin="round"/>
<path d="M12.9154 6.24967C12.9154 7.86051 11.6095 9.16634 9.99871 9.16634C8.38788 9.16634 7.08203 7.86051 7.08203 6.24967C7.08203 4.63884 8.38788 3.33301 9.99871 3.33301C11.6095 3.33301 12.9154 4.63884 12.9154 6.24967Z" stroke="#777980" stroke-width="1.25"/>
</svg>
