<svg width="20" height="20" viewBox="0 0 20 20" fill="none" xmlns="http://www.w3.org/2000/svg">
<path d="M14.6875 1.875H5.3125C3.09583 1.875 1.875 3.09583 1.875 5.3125V14.6875C1.875 16.9042 3.09583 18.125 5.3125 18.125H14.6875C16.9042 18.125 18.125 16.9042 18.125 14.6875V5.3125C18.125 3.09583 16.9042 1.875 14.6875 1.875ZM14.375 16.875H5.625V16.5583C5.625 15.8642 5.83753 13.6 8.57503 13.6H11.425C14.1625 13.6 14.375 15.8642 14.375 16.5583V16.875ZM16.875 14.6875C16.875 15.8592 16.4892 16.5141 15.625 16.7591V16.5583C15.625 14.6167 14.525 12.35 11.425 12.35H8.57503C5.47503 12.35 4.375 14.6175 4.375 16.5583V16.7591C3.51083 16.5141 3.125 15.8583 3.125 14.6875V5.3125C3.125 3.77917 3.77917 3.125 5.3125 3.125H14.6875C16.2208 3.125 16.875 3.77917 16.875 5.3125V14.6875ZM10.0067 5.20833C8.28421 5.20833 6.88171 6.61 6.88171 8.33333C6.88171 10.0567 8.28421 11.4583 10.0067 11.4583C11.7292 11.4583 13.1317 10.0567 13.1317 8.33333C13.1317 6.61 11.7292 5.20833 10.0067 5.20833ZM10.0067 10.2083C8.97338 10.2083 8.13171 9.3675 8.13171 8.33333C8.13171 7.29917 8.97338 6.45833 10.0067 6.45833C11.04 6.45833 11.8817 7.29917 11.8817 8.33333C11.8817 9.3675 11.04 10.2083 10.0067 10.2083Z" fill="#E9E9EA"/>
</svg>
