<svg width="20" height="20" viewBox="0 0 20 20" fill="none" xmlns="http://www.w3.org/2000/svg">
<path d="M5.48131 12.9017C4.30234 13.6037 1.21114 15.0371 3.09389 16.8308C4.01359 17.707 5.03791 18.3337 6.32573 18.3337H13.6743C14.9621 18.3337 15.9864 17.707 16.9061 16.8308C18.7888 15.0371 15.6977 13.6037 14.5187 12.9017C11.754 11.2554 8.24599 11.2554 5.48131 12.9017Z" stroke="#827D8B" stroke-width="1.25" stroke-linecap="round" stroke-linejoin="round"/>
<path d="M13.75 5.41699C13.75 7.48806 12.0711 9.16699 10 9.16699C7.92893 9.16699 6.25 7.48806 6.25 5.41699C6.25 3.34593 7.92893 1.66699 10 1.66699C12.0711 1.66699 13.75 3.34593 13.75 5.41699Z" stroke="#827D8B" stroke-width="1.25"/>
</svg>
